<?xml version="1.0" encoding="UTF-8"?><svg id="Layer_2" xmlns="http://www.w3.org/2000/svg" viewBox="0 0 150 184.31"><g id="Layer_1-2"><g><path d="m129.28,91.3c-1.29,2.13-5.37,8.42-13.39,18.47-1.73,2.17-3.1,3.63-4.84,5.5-4.38,4.69-7.91,7.74-13.47,12.54-4.66,4.01-8.28,6.89-10.6,8.74-3.94,3.13-6.09,4.91-9.13,6.99-2.7,1.85-7.09,4.75-12.72,7.97-14.98,8.58-24.99,11.16-32.64,12.88-5.02,1.13-11.19,2.08-15.33-1.47-2.31-2.11-3.84-5.05-4.3-8.19-1.17-8.45,9.24-25.85,22.7-44.29.13-.18.21-.4.21-.63,0-.12,0-.25,0-.37,1.35,8.35,5.3,15.82,11,21.57,1.5,1.51,3.72,2.09,5.78,1.56,18.91-4.81,34.69-19.14,39.4-27.84.59-1.09.93-2.3.98-3.53.7-17.58-15.3-28.61-31.97-25.73,4.57-2.18,9.37-3.36,14.2-3.71,1.62-.12,3.24-.14,4.85-.08,11.93.48,23.55,5.79,31.56,13.57.18.19.32.31.38.36.05.07.1.13.14.19.03-.06.07-.09.1-.15-5.18-10.32-15.6-18.23-27.58-21.1l23.39-23.75c.16-.17-.06-.44-.25-.3-12.67,9.87-15.27,10.99-27.99,23.05.41.09.81.19,1.22.29-3.68-.55-7.47-.65-11.27-.16-7.63.98-14.63,4.19-20.29,8.94-7.27,6.09-12.34,14.75-13.75,24.53h0s0,.02,0,.03c-.34,2.36-.46,4.68-.4,6.95-10.19,12.8-20.13,28.22-26.1,39.21-2.16,3.96-3.8,7.35-4.75,9.81-1.12,3.16-2.25,5.96-3.01,8.7-.86,3.06-1.61,5.87-1.36,9.49.11,1.65.34,2.87,1.14,4.72,1.82,4.17,6,6.58,10.36,7.6,3.91.91,15.81,2.82,38.76-10.2,6.66-3.78,12.61-7.87,17.93-12.05,23.82-17.07,48.14-43.28,61.42-69.9.12-.24-.24-.43-.38-.2Z"/><path d="m149.84,63.62c-2.44-.54-8.43-1.32-9.38-2.29-1.13-1.1-2.01-7.14-2.54-9.84-.04-.23-.37-.23-.41,0-.53,2.7-1.41,8.74-2.55,9.84-.95.97-7.14,1.76-9.62,2.29-.22.05-.22.36,0,.41,2.48.54,8.67,1.33,9.62,2.29,1.13,1.1,2.02,6.92,2.55,9.57.05.23.37.23.41,0,.53-2.64,1.42-8.46,2.54-9.57.95-.96,6.94-1.76,9.38-2.29.22-.05.22-.36,0-.41Z"/><path d="m85.01,31.72c6.79.51,21.78,1.19,26.68,2.01.85.14,1.4.29,1.55.43.14.13.27.52.4,1.1.99,4.38,1.79,20.18,2.33,27.52.03.46.7.46.74,0,.61-8.3,1.56-27.45,2.72-28.62,1-1,20.27-1.84,28.25-2.44.46-.03.46-.7,0-.74-7.98-.6-27.25-1.44-28.25-2.44-1.16-1.16-2.12-20.01-2.72-28.19-.03-.46-.7-.46-.74,0-.61,8.19-1.55,27.04-2.73,28.19-.99,1.01-20.25,1.85-28.22,2.45-.46.03-.46.7,0,.74Z"/></g></g></svg>