<?xml version="1.0" encoding="UTF-8"?><svg id="Layer_2" xmlns="http://www.w3.org/2000/svg" viewBox="0 0 150 181.63"><defs><style>.cls-1{fill:#fff;}</style></defs><g id="Layer_1-2"><g><path class="cls-1" d="m127.02,90.25c-1.27,2.09-5.28,8.28-13.16,18.15-1.7,2.13-3.04,3.57-4.76,5.4-4.3,4.6-7.77,7.61-13.24,12.32-4.58,3.94-8.13,6.77-10.42,8.59-3.87,3.08-5.98,4.83-8.97,6.87-2.65,1.81-6.97,4.66-12.5,7.83-14.72,8.43-24.55,10.96-32.07,12.65-4.94,1.11-11,2.04-15.06-1.44-2.27-2.07-3.77-4.96-4.23-8.05-1.15-8.3,9.08-25.4,22.31-43.51.13-.18.21-.39.21-.62,0-.12,0-.24,0-.36,1.33,8.2,5.21,15.55,10.8,21.19,1.47,1.49,3.65,2.05,5.68,1.53,18.58-4.72,34.08-18.8,38.71-27.36.58-1.07.91-2.26.96-3.47.89-22.45-25.95-34.07-45.9-18.85.74-1,1.53-1.93,2.37-2.81,2.69-2.59,5.65-4.74,8.78-6.45,15.58-8.49,35.48-6.17,48.66,7.01,1.87,1.87,3.49,3.88,4.92,5.98.03-.06.07-.09.1-.15-5.18-10.32-15.68-18.19-27.72-20.88l22.61-22.96c.16-.16-.06-.44-.24-.29-12.38,9.64-14.98,10.8-27.29,22.45-2.99-.3-6.05-.29-9.11.1-17.14,2.2-30.98,15.81-33.44,32.91-.33,2.31-.45,4.59-.39,6.83-10.01,12.57-19.78,27.73-25.65,38.52-2.12,3.89-3.73,7.22-4.66,9.64-1.1,3.11-2.21,5.86-2.96,8.55-.84,3.01-1.58,5.76-1.34,9.33.11,1.62.33,2.82,1.12,4.64,1.79,4.1,5.9,6.46,10.18,7.46,3.84.9,15.54,2.77,38.08-10.02,6.54-3.71,12.39-7.73,17.61-11.84,23.4-16.77,47.3-42.53,60.35-68.68.12-.24-.23-.43-.37-.2Z"/><path class="cls-1" d="m149.84,63.24c-2.39-.53-8.28-1.3-9.21-2.25-1.11-1.08-1.98-7.01-2.5-9.67-.04-.22-.36-.22-.41,0-.52,2.65-1.39,8.59-2.5,9.67-.93.95-7.01,1.73-9.45,2.25-.22.05-.22.36,0,.4,2.44.53,8.52,1.3,9.45,2.25,1.11,1.09,1.98,6.8,2.5,9.4.04.22.36.22.41,0,.52-2.6,1.39-8.32,2.5-9.4.93-.95,6.82-1.72,9.21-2.25.21-.05.21-.36,0-.4Z"/><path class="cls-1" d="m85.59,31.16c6.68.5,21.4,1.17,26.21,1.97.83.14,1.37.28,1.52.43.14.13.27.51.4,1.08.98,4.3,1.76,19.83,2.29,27.04.03.45.69.45.73,0,.6-8.16,1.53-26.97,2.68-28.12.98-.98,19.92-1.81,27.76-2.4.45-.03.45-.69,0-.73-7.84-.59-26.78-1.42-27.76-2.4-1.14-1.14-2.08-19.66-2.68-27.7-.03-.45-.69-.45-.73,0-.6,8.04-1.52,26.57-2.68,27.7-.97.99-19.9,1.82-27.73,2.4-.45.03-.45.69,0,.73Z"/></g></g></svg>